:FULLY-SPECIFIED
:FORCE-ALL-JOINTS-BE-3DOF
:DEGREES
1325
root -1.5382 14.8501 6.94658 -6.5129 23.5987 2.01461
lfemur -2.52254 5.47605 -17.7208
ltibia 53.8925 -0 0
lfoot -26.3143 25.4815 0.120647
ltoes -14.2276 0 0
rfemur -47.7897 -7.24162 4.87948
rtibia 45.1072 -0 0
rfoot 17.0795 6.57758 -0.0258745
rtoes 3.18381 -0 0
lowerback 12.6392 0.686152 -10.1137
upperback -1.91816 -0.61975 0.785844
thorax -9.12125 0.257748 6.71595
lowerneck -4.61888 -8.81737 -10.7619
upperneck 14.9422 -12.0891 7.62248
head 6.46025 -5.97349 3.2967
lclavicle 5.00565e-14 -1.17283e-14 0
lhumerus -34.0083 -44.8205 113.611
lradius 111.281 -0 0
lwrist 40.9604 0 0
lhand -13.5777 47.0722 -0.0244348
lfingers 7.12502 -0 0
lthumb 12.536 76.6721 -0.0245246
rclavicle 5.00565e-14 -1.17283e-14 0
rhumerus 36.4578 21.0255 -54.1902
rradius 99.4359 -0 0
rwrist -21.7207 0 0
rhand -16.555 -29.9045 0.163587
rfingers 7.12502 -0 0
rthumb 9.65814 -59.2202 0.157283
1326
root -1.554 14.8248 7.11666 -6.13952 23.8738 2.14033
lfemur -1.75136 5.23778 -17.4285
ltibia 53.0708 -0 0
lfoot -26.0765 25.8221 0.133319
ltoes -14.4368 0 0
rfemur -48.1499 -7.68253 4.94829
rtibia 45.9026 -0 0
rfoot 16.2694 6.59898 -0.0285985
rtoes 2.84236 -0 0
lowerback 12.5849 0.737888 -10.1322
upperback -1.96311 -0.55525 0.719596
thorax -9.15201 0.29113 6.64008
lowerneck -4.39874 -8.94108 -10.7865
upperneck 14.6008 -12.2713 7.71248
head 6.34329 -6.06428 3.33104
lclavicle 5.00565e-14 -1.17283e-14 0
lhumerus -35.7574 -43.6313 113.665
lradius 110.919 -0 0
lwrist 41.6215 0 0
lhand -13.4747 46.9128 -0.0269996
lfingers 7.12502 -0 0
lthumb 12.6352 76.5061 -0.0270989
rclavicle 5.00565e-14 -1.17283e-14 0
rhumerus 37.86 19.9597 -52.7075
rradius 98.7423 -0 0
rwrist -19.7065 0 0
rhand -17.6204 -30.0072 0.18085
rfingers 7.12502 -0 0
rthumb 8.63017 -59.3226 0.173875
1327
root -1.56981 14.7994 7.28675 -5.74887 24.1598 2.27372
lfemur -0.949327 4.98534 -17.1275
ltibia 52.2144 -0 0
lfoot -25.8287 26.177 0.145021
ltoes -14.6548 0 0
rfemur -48.5264 -8.14155 5.02305
rtibia 46.7315 -0 0
rfoot 15.4252 6.62132 -0.0311151
rtoes 2.48653 -0 0
lowerback 12.5282 0.791785 -10.1516
upperback -2.01004 -0.48809 0.650504
thorax -9.18411 0.325875 6.56099
lowerneck -4.1692 -9.0699 -10.8125
upperneck 14.2444 -12.4606 7.80752
head 6.22132 -6.15881 3.36702
lclavicle 5.00565e-14 -1.17283e-14 0
lhumerus -37.5428 -42.3913 113.668
lradius 110.541 -0 0
lwrist 42.3104 0 0
lhand -13.3674 46.7468 -0.0293678
lfingers 7.12502 -0 0
lthumb 12.7386 76.3332 -0.0294757
rclavicle 5.00565e-14 -1.17283e-14 0
rhumerus 39.2798 18.8138 -51.2027
rradius 98.0194 -0 0
rwrist -17.6074 0 0
rhand -18.7308 -30.1145 0.196805
rfingers 7.12502 -0 0
rthumb 7.55887 -59.4296 0.189208
1328
root -1.58561 14.7741 7.45683 -5.34284 24.4548 2.41436
lfemur -0.120933 4.71967 -16.8198
ltibia 51.3281 -0 0
lfoot -25.5721 26.5445 0.155515
ltoes -14.8804 0 0
rfemur -48.9171 -8.61612 5.10373
rtibia 47.5894 -0 0
rfoot 14.5514 6.64448 -0.0333728
rtoes 2.11824 -0 0
lowerback 12.4696 0.847549 -10.1717
upperback -2.05869 -0.418636 0.578936
thorax -9.21738 0.361791 6.47911
lowerneck -3.93146 -9.20313 -10.8401
upperneck 13.875 -12.6559 7.90723
head 6.095 -6.25658 3.40449
lclavicle 5.00565e-14 -1.17283e-14 0
lhumerus -39.3547 -41.1085 113.617
lradius 110.15 -0 0
lwrist 43.0234 0 0
lhand -13.2564 46.5749 -0.0314913
lfingers 7.12502 -0 0
lthumb 12.8457 76.1542 -0.0316071
rclavicle 5.00565e-14 -1.17283e-14 0
rhumerus 40.7056 17.5916 -49.6876
rradius 97.2713 -0 0
rwrist -15.4348 0 0
rhand -19.88 -30.2259 0.211124
rfingers 7.12502 -0 0
rthumb 6.45003 -59.5406 0.202968
1329
root -1.60142 14.7487 7.62691 -4.92336 24.7574 2.56176
lfemur 0.729353 4.44179 -16.5076
ltibia 50.4164 -0 0
lfoot -25.3081 26.9225 0.164593
ltoes -15.1125 0 0
rfemur -49.3202 -9.1037 5.19024
rtibia 48.4719 -0 0
rfoot 13.6526 6.66833 -0.0353264
rtoes 1.73941 -0 0
lowerback 12.4093 0.904888 -10.1924
upperback -2.10883 -0.347258 0.505257
thorax -9.25166 0.398685 6.39486
lowerneck -3.68676 -9.34005 -10.869
upperneck 13.4943 -12.8561 8.01122
head 5.96496 -6.35706 3.44327
lclavicle 5.00565e-14 -1.17283e-14 0
lhumerus -41.1844 -39.7909 113.51
lradius 109.748 -0 0
lwrist 43.7568 0 0
lhand -13.1421 46.398 -0.033328
lfingers 7.12502 -0 0
lthumb 12.9558 75.9701 -0.0334506
rclavicle 5.00565e-14 -1.17283e-14 0
rhumerus 42.1269 16.298 -48.173
rradius 96.5017 -0 0
rwrist -13.2001 0 0
rhand -21.0622 -30.3408 0.223519
rfingers 7.12502 -0 0
rthumb 5.3094 -59.655 0.214879
1330
root -1.61722 14.7233 7.797 -4.49237 25.0659 2.71542
lfemur 1.5971 4.15285 -16.1926
ltibia 49.4839 -0 0
lfoot -25.0381 27.3092 0.172075
ltoes -15.3499 0 0
rfemur -49.7339 -9.60175 5.28245
rtibia 49.3745 -0 0
rfoot 12.7333 6.69276 -0.0369372
rtoes 1.35194 -0 0
lowerback 12.3475 0.963511 -10.2137
upperback -2.1602 -0.274321 0.429837
thorax -9.28677 0.436367 6.30868
lowerneck -3.43632 -9.47996 -10.8992
upperneck 13.1042 -13.0602 8.11908
head 5.83187 -6.45974 3.48317
lclavicle 5.00565e-14 -1.17283e-14 0
lhumerus -43.0239 -38.4466 113.348
lradius 109.336 -0 0
lwrist 44.507 0 0
lhand -13.0253 46.2172 -0.0348419
lfingers 7.12502 -0 0
lthumb 13.0684 75.7817 -0.03497
rclavicle 5.00565e-14 -1.17283e-14 0
rhumerus 43.534 14.9387 -46.6687
rradius 95.7146 -0 0
rwrist -10.9144 0 0
rhand -22.2714 -30.4585 0.233741
rfingers 7.12502 -0 0
rthumb 4.14278 -59.7723 0.224701
1331
root -1.63302 14.698 7.96708 -4.05185 25.3785 2.87477
lfemur 2.4779 3.85407 -15.8768
ltibia 48.5352 -0 0
lfoot -24.7633 27.7026 0.177817
ltoes -15.5914 0 0
rfemur -50.1562 -10.1077 5.38015
rtibia 50.2927 -0 0
rfoot 11.7981 6.71764 -0.0381735
rtoes 0.957771 -0 0
lowerback 12.2847 1.02313 -10.2354
upperback -2.21256 -0.20019 0.353043
thorax -9.32256 0.474648 6.22097
lowerneck -3.18135 -9.62216 -10.9306
upperneck 12.7067 -13.2671 8.23036
head 5.69637 -6.5641 3.52401
lclavicle 5.00565e-14 -1.17283e-14 0
lhumerus -44.8663 -37.0838 113.13
lradius 108.918 -0 0
lwrist 45.2701 0 0
lhand -12.9064 46.0332 -0.0360034
lfingers 7.12502 -0 0
lthumb 13.183 75.5901 -0.0361358
rclavicle 5.00565e-14 -1.17283e-14 0
rhumerus 44.9186 13.5205 -45.1835
rradius 94.9139 -0 0
rwrist -8.5891 0 0
rhand -23.5015 -30.5785 0.241589
rfingers 7.12502 -0 0
rthumb 2.95593 -59.8918 0.232242
1332
root -1.64883 14.6726 8.13716 -3.60383 25.6939 3.0392
lfemur 3.36743 3.54676 -15.562
ltibia 47.575 -0 0
lfoot -24.4851 28.1008 0.181707
ltoes -15.8358 0 0
rfemur -50.5853 -10.6191 5.48305
rtibia 51.2221 -0 0
rfoot 10.8515 6.74283 -0.0390112
rtoes 0.558804 -0 0
lowerback 12.2211 1.08344 -10.2574
upperback -2.26566 -0.125229 0.275247
thorax -9.35883 0.513338 6.13217
lowerneck -2.92309 -9.76594 -10.963
upperneck 12.3035 -13.4757 8.34458
head 5.55912 -6.66963 3.56562
lclavicle 5.00565e-14 -1.17283e-14 0
lhumerus -46.705 -35.7108 112.859
lradius 108.494 -0 0
lwrist 46.0425 0 0
lhand -12.7861 45.8469 -0.0367903
lfingers 7.12502 -0 0
lthumb 13.299 75.3962 -0.0369257
rclavicle 5.00565e-14 -1.17283e-14 0
rhumerus 46.2732 12.0505 -43.7248
rradius 94.1034 -0 0
rwrist -6.23555 0 0
rhand -24.7466 -30.7001 0.246908
rfingers 7.12502 -0 0
rthumb 1.75464 -60.0129 0.237352
1333
root -1.66463 14.6473 8.30725 -3.15036 26.0103 3.20802
lfemur 4.26135 3.23235 -15.2499
ltibia 46.608 -0 0
lfoot -24.2049 28.5019 0.18367
ltoes -16.082 0 0
rfemur -51.0191 -11.1334 5.59082
rtibia 52.1581 -0 0
rfoot 9.89813 6.76822 -0.0394342
rtoes 0.156961 -0 0
lowerback 12.157 1.14417 -10.2797
upperback -2.31925 -0.049801 0.19682
thorax -9.39543 0.55225 6.04271
lowerneck -2.66277 -9.91062 -10.9964
upperneck 11.8967 -13.6851 8.46126
head 5.42077 -6.77582 3.60779
lclavicle 5.00565e-14 -1.17283e-14 0
lhumerus -48.5341 -34.3356 112.536
lradius 108.068 -0 0
lwrist 46.8205 0 0
lhand -12.6649 45.6594 -0.0371876
lfingers 7.12502 -0 0
lthumb 13.4158 75.2009 -0.0373244
rclavicle 5.00565e-14 -1.17283e-14 0
rhumerus 47.5917 10.537 -42.2994
rradius 93.2871 -0 0
rwrist -3.86503 0 0
rhand -26.0006 -30.8226 0.249594
rfingers 7.12502 -0 0
rthumb 0.544676 -60.1349 0.239933
1334
root -1.68044 14.6219 8.47733 -2.69352 26.3263 3.3805
lfemur 5.1554 2.91235 -14.9422
ltibia 45.6385 -0 0
lfoot -23.9241 28.9039 0.18367
ltoes -16.3287 0 0
rfemur -51.4557 -11.6482 5.70303
rtibia 53.0965 -0 0
rfoot 8.94247 6.79366 -0.0394342
rtoes -0.245841 0 0
lowerback 12.0927 1.20501 -10.3021
upperback -2.37307 0.0257334 0.118135
thorax -9.43218 0.591198 5.95301
lowerneck -2.40163 -10.0555 -11.0305
upperneck 11.4881 -13.8941 8.57986
head 5.28198 -6.88217 3.65033
lclavicle 5.00565e-14 -1.17283e-14 0
lhumerus -50.3477 -32.9663 112.166
lradius 107.64 -0 0
lwrist 47.6004 0 0
lhand -12.5434 45.4713 -0.0371876
lfingers 7.12502 -0 0
lthumb 13.5329 75.0051 -0.0373244
rclavicle 5.00565e-14 -1.17283e-14 0
rhumerus 48.8686 8.98848 -40.9129
rradius 92.4689 -0 0
rwrist -1.48887 0 0
rhand -27.2577 -30.9455 0.249594
rfingers 7.12502 -0 0
rthumb -0.668176 -60.2572 0.239933
1335
root -1.69624 14.5966 8.64742 -2.23547 26.6403 3.55584
lfemur 6.04536 2.58839 -14.6402
ltibia 44.6715 -0 0
lfoot -23.6439 29.305 0.181707
ltoes -16.5749 0 0
rfemur -51.8932 -12.1608 5.81918
rtibia 54.0325 -0 0
rfoot 7.98907 6.81905 -0.0390112
rtoes -0.647684 0 0
lowerback 12.0286 1.26569 -10.3245
upperback -2.42686 0.101014 0.0395667
thorax -9.4689 0.629996 5.8635
lowerneck -2.14091 -10.1999 -11.0652
upperneck 11.0796 -14.1018 8.69981
head 5.14341 -6.98815 3.69304
lclavicle 5.00565e-14 -1.17283e-14 0
lhumerus -52.1403 -31.6106 111.751
lradius 107.214 -0 0
lwrist 48.3784 0 0
lhand -12.4222 45.2838 -0.0367903
lfingers 7.12502 -0 0
lthumb 13.6497 74.8098 -0.0369257
rclavicle 5.00565e-14 -1.17283e-14 0
rhumerus 50.0995 7.41422 -39.5702
rradius 91.6526 -0 0
rwrist 0.881647 0 0
rhand -28.5118 -31.068 0.246908
rfingers 7.12502 -0 0
rthumb -1.87814 -60.3792 0.237352
